ISO-10303-21;
HEADER;
FILE_DESCRIPTION(('RunCam_Split4_placeholder placeholder'),'2;1');
FILE_NAME('RunCam_Split4_placeholder','2026-10-05T01:59:07',(''),(''),'step_boxes.py','','');
FILE_SCHEMA(('AUTOMOTIVE_DESIGN { 1 0 10303 214 1 1 1 1 }'));
ENDSEC;
DATA;
#100=CARTESIAN_POINT('',(-12.5000,-12.5000,3.6000));
#101=VERTEX_POINT('',#100);
#102=CARTESIAN_POINT('',(12.5000,-12.5000,3.6000));
#103=VERTEX_POINT('',#102);
#104=CARTESIAN_POINT('',(-12.5000,12.5000,3.6000));
#105=VERTEX_POINT('',#104);
#106=CARTESIAN_POINT('',(12.5000,12.5000,3.6000));
#107=VERTEX_POINT('',#106);
#108=CARTESIAN_POINT('',(-12.5000,-12.5000,5.0000));
#109=VERTEX_POINT('',#108);
#110=CARTESIAN_POINT('',(12.5000,-12.5000,5.0000));
#111=VERTEX_POINT('',#110);
#112=CARTESIAN_POINT('',(-12.5000,12.5000,5.0000));
#113=VERTEX_POINT('',#112);
#114=CARTESIAN_POINT('',(12.5000,12.5000,5.0000));
#115=VERTEX_POINT('',#114);
#116=DIRECTION('',(0.0,1.0,0.0));
#117=VECTOR('',#116,25.0000);
#118=CARTESIAN_POINT('',(-12.5000,-12.5000,3.6000));
#119=LINE('',#118,#117);
#120=EDGE_CURVE('',#101,#105,#119,.T.);
#121=ORIENTED_EDGE('',*,*,#120,.T.);
#122=DIRECTION('',(1.0,0.0,0.0));
#123=VECTOR('',#122,25.0000);
#124=CARTESIAN_POINT('',(-12.5000,12.5000,3.6000));
#125=LINE('',#124,#123);
#126=EDGE_CURVE('',#105,#107,#125,.T.);
#127=ORIENTED_EDGE('',*,*,#126,.T.);
#128=DIRECTION('',(0.0,1.0,0.0));
#129=VECTOR('',#128,25.0000);
#130=CARTESIAN_POINT('',(12.5000,-12.5000,3.6000));
#131=LINE('',#130,#129);
#132=EDGE_CURVE('',#103,#107,#131,.T.);
#133=ORIENTED_EDGE('',*,*,#132,.F.);
#134=DIRECTION('',(1.0,0.0,0.0));
#135=VECTOR('',#134,25.0000);
#136=CARTESIAN_POINT('',(-12.5000,-12.5000,3.6000));
#137=LINE('',#136,#135);
#138=EDGE_CURVE('',#101,#103,#137,.T.);
#139=ORIENTED_EDGE('',*,*,#138,.F.);
#140=EDGE_LOOP('',(#121,#127,#133,#139));
#141=FACE_OUTER_BOUND('',#140,.T.);
#142=CARTESIAN_POINT('',(-12.5000,-12.5000,3.6000));
#143=DIRECTION('',(0.0,0.0,-1.0));
#144=DIRECTION('',(1.0,0.0,0.0));
#145=AXIS2_PLACEMENT_3D('',#142,#143,#144);
#146=PLANE('',#145);
#147=ADVANCED_FACE('',(#141),#146,.T.);
#148=DIRECTION('',(1.0,0.0,0.0));
#149=VECTOR('',#148,25.0000);
#150=CARTESIAN_POINT('',(-12.5000,-12.5000,5.0000));
#151=LINE('',#150,#149);
#152=EDGE_CURVE('',#109,#111,#151,.T.);
#153=ORIENTED_EDGE('',*,*,#152,.T.);
#154=DIRECTION('',(0.0,1.0,0.0));
#155=VECTOR('',#154,25.0000);
#156=CARTESIAN_POINT('',(12.5000,-12.5000,5.0000));
#157=LINE('',#156,#155);
#158=EDGE_CURVE('',#111,#115,#157,.T.);
#159=ORIENTED_EDGE('',*,*,#158,.T.);
#160=DIRECTION('',(1.0,0.0,0.0));
#161=VECTOR('',#160,25.0000);
#162=CARTESIAN_POINT('',(-12.5000,12.5000,5.0000));
#163=LINE('',#162,#161);
#164=EDGE_CURVE('',#113,#115,#163,.T.);
#165=ORIENTED_EDGE('',*,*,#164,.F.);
#166=DIRECTION('',(0.0,1.0,0.0));
#167=VECTOR('',#166,25.0000);
#168=CARTESIAN_POINT('',(-12.5000,-12.5000,5.0000));
#169=LINE('',#168,#167);
#170=EDGE_CURVE('',#109,#113,#169,.T.);
#171=ORIENTED_EDGE('',*,*,#170,.F.);
#172=EDGE_LOOP('',(#153,#159,#165,#171));
#173=FACE_OUTER_BOUND('',#172,.T.);
#174=CARTESIAN_POINT('',(-12.5000,-12.5000,5.0000));
#175=DIRECTION('',(0.0,0.0,1.0));
#176=DIRECTION('',(1.0,0.0,0.0));
#177=AXIS2_PLACEMENT_3D('',#174,#175,#176);
#178=PLANE('',#177);
#179=ADVANCED_FACE('',(#173),#178,.T.);
#180=ORIENTED_EDGE('',*,*,#138,.T.);
#181=DIRECTION('',(0.0,0.0,1.0));
#182=VECTOR('',#181,1.4000);
#183=CARTESIAN_POINT('',(12.5000,-12.5000,3.6000));
#184=LINE('',#183,#182);
#185=EDGE_CURVE('',#103,#111,#184,.T.);
#186=ORIENTED_EDGE('',*,*,#185,.T.);
#187=ORIENTED_EDGE('',*,*,#152,.F.);
#188=DIRECTION('',(0.0,0.0,1.0));
#189=VECTOR('',#188,1.4000);
#190=CARTESIAN_POINT('',(-12.5000,-12.5000,3.6000));
#191=LINE('',#190,#189);
#192=EDGE_CURVE('',#101,#109,#191,.T.);
#193=ORIENTED_EDGE('',*,*,#192,.F.);
#194=EDGE_LOOP('',(#180,#186,#187,#193));
#195=FACE_OUTER_BOUND('',#194,.T.);
#196=CARTESIAN_POINT('',(-12.5000,-12.5000,3.6000));
#197=DIRECTION('',(0.0,-1.0,0.0));
#198=DIRECTION('',(1.0,0.0,0.0));
#199=AXIS2_PLACEMENT_3D('',#196,#197,#198);
#200=PLANE('',#199);
#201=ADVANCED_FACE('',(#195),#200,.T.);
#202=ORIENTED_EDGE('',*,*,#126,.F.);
#203=DIRECTION('',(0.0,0.0,1.0));
#204=VECTOR('',#203,1.4000);
#205=CARTESIAN_POINT('',(-12.5000,12.5000,3.6000));
#206=LINE('',#205,#204);
#207=EDGE_CURVE('',#105,#113,#206,.T.);
#208=ORIENTED_EDGE('',*,*,#207,.T.);
#209=ORIENTED_EDGE('',*,*,#164,.T.);
#210=DIRECTION('',(0.0,0.0,1.0));
#211=VECTOR('',#210,1.4000);
#212=CARTESIAN_POINT('',(12.5000,12.5000,3.6000));
#213=LINE('',#212,#211);
#214=EDGE_CURVE('',#107,#115,#213,.T.);
#215=ORIENTED_EDGE('',*,*,#214,.F.);
#216=EDGE_LOOP('',(#202,#208,#209,#215));
#217=FACE_OUTER_BOUND('',#216,.T.);
#218=CARTESIAN_POINT('',(12.5000,12.5000,3.6000));
#219=DIRECTION('',(0.0,1.0,0.0));
#220=DIRECTION('',(1.0,0.0,0.0));
#221=AXIS2_PLACEMENT_3D('',#218,#219,#220);
#222=PLANE('',#221);
#223=ADVANCED_FACE('',(#217),#222,.T.);
#224=ORIENTED_EDGE('',*,*,#120,.F.);
#225=ORIENTED_EDGE('',*,*,#192,.T.);
#226=ORIENTED_EDGE('',*,*,#170,.T.);
#227=ORIENTED_EDGE('',*,*,#207,.F.);
#228=EDGE_LOOP('',(#224,#225,#226,#227));
#229=FACE_OUTER_BOUND('',#228,.T.);
#230=CARTESIAN_POINT('',(-12.5000,12.5000,3.6000));
#231=DIRECTION('',(-1.0,0.0,0.0));
#232=DIRECTION('',(0.0,1.0,0.0));
#233=AXIS2_PLACEMENT_3D('',#230,#231,#232);
#234=PLANE('',#233);
#235=ADVANCED_FACE('',(#229),#234,.T.);
#236=ORIENTED_EDGE('',*,*,#132,.T.);
#237=ORIENTED_EDGE('',*,*,#214,.T.);
#238=ORIENTED_EDGE('',*,*,#158,.F.);
#239=ORIENTED_EDGE('',*,*,#185,.F.);
#240=EDGE_LOOP('',(#236,#237,#238,#239));
#241=FACE_OUTER_BOUND('',#240,.T.);
#242=CARTESIAN_POINT('',(12.5000,-12.5000,3.6000));
#243=DIRECTION('',(1.0,0.0,0.0));
#244=DIRECTION('',(0.0,1.0,0.0));
#245=AXIS2_PLACEMENT_3D('',#242,#243,#244);
#246=PLANE('',#245);
#247=ADVANCED_FACE('',(#241),#246,.T.);
#248=CLOSED_SHELL('',(#147,#179,#201,#223,#235,#247));
#249=MANIFOLD_SOLID_BREP('RunCam_Split4_placeholder',#248);
#250=CARTESIAN_POINT('',(-14.5000,-14.5000,5.0000));
#251=VERTEX_POINT('',#250);
#252=CARTESIAN_POINT('',(14.5000,-14.5000,5.0000));
#253=VERTEX_POINT('',#252);
#254=CARTESIAN_POINT('',(-14.5000,14.5000,5.0000));
#255=VERTEX_POINT('',#254);
#256=CARTESIAN_POINT('',(14.5000,14.5000,5.0000));
#257=VERTEX_POINT('',#256);
#258=CARTESIAN_POINT('',(-14.5000,-14.5000,6.6000));
#259=VERTEX_POINT('',#258);
#260=CARTESIAN_POINT('',(14.5000,-14.5000,6.6000));
#261=VERTEX_POINT('',#260);
#262=CARTESIAN_POINT('',(-14.5000,14.5000,6.6000));
#263=VERTEX_POINT('',#262);
#264=CARTESIAN_POINT('',(14.5000,14.5000,6.6000));
#265=VERTEX_POINT('',#264);
#266=DIRECTION('',(0.0,1.0,0.0));
#267=VECTOR('',#266,29.0000);
#268=CARTESIAN_POINT('',(-14.5000,-14.5000,5.0000));
#269=LINE('',#268,#267);
#270=EDGE_CURVE('',#251,#255,#269,.T.);
#271=ORIENTED_EDGE('',*,*,#270,.T.);
#272=DIRECTION('',(1.0,0.0,0.0));
#273=VECTOR('',#272,29.0000);
#274=CARTESIAN_POINT('',(-14.5000,14.5000,5.0000));
#275=LINE('',#274,#273);
#276=EDGE_CURVE('',#255,#257,#275,.T.);
#277=ORIENTED_EDGE('',*,*,#276,.T.);
#278=DIRECTION('',(0.0,1.0,0.0));
#279=VECTOR('',#278,29.0000);
#280=CARTESIAN_POINT('',(14.5000,-14.5000,5.0000));
#281=LINE('',#280,#279);
#282=EDGE_CURVE('',#253,#257,#281,.T.);
#283=ORIENTED_EDGE('',*,*,#282,.F.);
#284=DIRECTION('',(1.0,0.0,0.0));
#285=VECTOR('',#284,29.0000);
#286=CARTESIAN_POINT('',(-14.5000,-14.5000,5.0000));
#287=LINE('',#286,#285);
#288=EDGE_CURVE('',#251,#253,#287,.T.);
#289=ORIENTED_EDGE('',*,*,#288,.F.);
#290=EDGE_LOOP('',(#271,#277,#283,#289));
#291=FACE_OUTER_BOUND('',#290,.T.);
#292=CARTESIAN_POINT('',(-14.5000,-14.5000,5.0000));
#293=DIRECTION('',(0.0,0.0,-1.0));
#294=DIRECTION('',(1.0,0.0,0.0));
#295=AXIS2_PLACEMENT_3D('',#292,#293,#294);
#296=PLANE('',#295);
#297=ADVANCED_FACE('',(#291),#296,.T.);
#298=DIRECTION('',(1.0,0.0,0.0));
#299=VECTOR('',#298,29.0000);
#300=CARTESIAN_POINT('',(-14.5000,-14.5000,6.6000));
#301=LINE('',#300,#299);
#302=EDGE_CURVE('',#259,#261,#301,.T.);
#303=ORIENTED_EDGE('',*,*,#302,.T.);
#304=DIRECTION('',(0.0,1.0,0.0));
#305=VECTOR('',#304,29.0000);
#306=CARTESIAN_POINT('',(14.5000,-14.5000,6.6000));
#307=LINE('',#306,#305);
#308=EDGE_CURVE('',#261,#265,#307,.T.);
#309=ORIENTED_EDGE('',*,*,#308,.T.);
#310=DIRECTION('',(1.0,0.0,0.0));
#311=VECTOR('',#310,29.0000);
#312=CARTESIAN_POINT('',(-14.5000,14.5000,6.6000));
#313=LINE('',#312,#311);
#314=EDGE_CURVE('',#263,#265,#313,.T.);
#315=ORIENTED_EDGE('',*,*,#314,.F.);
#316=DIRECTION('',(0.0,1.0,0.0));
#317=VECTOR('',#316,29.0000);
#318=CARTESIAN_POINT('',(-14.5000,-14.5000,6.6000));
#319=LINE('',#318,#317);
#320=EDGE_CURVE('',#259,#263,#319,.T.);
#321=ORIENTED_EDGE('',*,*,#320,.F.);
#322=EDGE_LOOP('',(#303,#309,#315,#321));
#323=FACE_OUTER_BOUND('',#322,.T.);
#324=CARTESIAN_POINT('',(-14.5000,-14.5000,6.6000));
#325=DIRECTION('',(0.0,0.0,1.0));
#326=DIRECTION('',(1.0,0.0,0.0));
#327=AXIS2_PLACEMENT_3D('',#324,#325,#326);
#328=PLANE('',#327);
#329=ADVANCED_FACE('',(#323),#328,.T.);
#330=ORIENTED_EDGE('',*,*,#288,.T.);
#331=DIRECTION('',(0.0,0.0,1.0));
#332=VECTOR('',#331,1.6000);
#333=CARTESIAN_POINT('',(14.5000,-14.5000,5.0000));
#334=LINE('',#333,#332);
#335=EDGE_CURVE('',#253,#261,#334,.T.);
#336=ORIENTED_EDGE('',*,*,#335,.T.);
#337=ORIENTED_EDGE('',*,*,#302,.F.);
#338=DIRECTION('',(0.0,0.0,1.0));
#339=VECTOR('',#338,1.6000);
#340=CARTESIAN_POINT('',(-14.5000,-14.5000,5.0000));
#341=LINE('',#340,#339);
#342=EDGE_CURVE('',#251,#259,#341,.T.);
#343=ORIENTED_EDGE('',*,*,#342,.F.);
#344=EDGE_LOOP('',(#330,#336,#337,#343));
#345=FACE_OUTER_BOUND('',#344,.T.);
#346=CARTESIAN_POINT('',(-14.5000,-14.5000,5.0000));
#347=DIRECTION('',(0.0,-1.0,0.0));
#348=DIRECTION('',(1.0,0.0,0.0));
#349=AXIS2_PLACEMENT_3D('',#346,#347,#348);
#350=PLANE('',#349);
#351=ADVANCED_FACE('',(#345),#350,.T.);
#352=ORIENTED_EDGE('',*,*,#276,.F.);
#353=DIRECTION('',(0.0,0.0,1.0));
#354=VECTOR('',#353,1.6000);
#355=CARTESIAN_POINT('',(-14.5000,14.5000,5.0000));
#356=LINE('',#355,#354);
#357=EDGE_CURVE('',#255,#263,#356,.T.);
#358=ORIENTED_EDGE('',*,*,#357,.T.);
#359=ORIENTED_EDGE('',*,*,#314,.T.);
#360=DIRECTION('',(0.0,0.0,1.0));
#361=VECTOR('',#360,1.6000);
#362=CARTESIAN_POINT('',(14.5000,14.5000,5.0000));
#363=LINE('',#362,#361);
#364=EDGE_CURVE('',#257,#265,#363,.T.);
#365=ORIENTED_EDGE('',*,*,#364,.F.);
#366=EDGE_LOOP('',(#352,#358,#359,#365));
#367=FACE_OUTER_BOUND('',#366,.T.);
#368=CARTESIAN_POINT('',(14.5000,14.5000,5.0000));
#369=DIRECTION('',(0.0,1.0,0.0));
#370=DIRECTION('',(1.0,0.0,0.0));
#371=AXIS2_PLACEMENT_3D('',#368,#369,#370);
#372=PLANE('',#371);
#373=ADVANCED_FACE('',(#367),#372,.T.);
#374=ORIENTED_EDGE('',*,*,#270,.F.);
#375=ORIENTED_EDGE('',*,*,#342,.T.);
#376=ORIENTED_EDGE('',*,*,#320,.T.);
#377=ORIENTED_EDGE('',*,*,#357,.F.);
#378=EDGE_LOOP('',(#374,#375,#376,#377));
#379=FACE_OUTER_BOUND('',#378,.T.);
#380=CARTESIAN_POINT('',(-14.5000,14.5000,5.0000));
#381=DIRECTION('',(-1.0,0.0,0.0));
#382=DIRECTION('',(0.0,1.0,0.0));
#383=AXIS2_PLACEMENT_3D('',#380,#381,#382);
#384=PLANE('',#383);
#385=ADVANCED_FACE('',(#379),#384,.T.);
#386=ORIENTED_EDGE('',*,*,#282,.T.);
#387=ORIENTED_EDGE('',*,*,#364,.T.);
#388=ORIENTED_EDGE('',*,*,#308,.F.);
#389=ORIENTED_EDGE('',*,*,#335,.F.);
#390=EDGE_LOOP('',(#386,#387,#388,#389));
#391=FACE_OUTER_BOUND('',#390,.T.);
#392=CARTESIAN_POINT('',(14.5000,-14.5000,5.0000));
#393=DIRECTION('',(1.0,0.0,0.0));
#394=DIRECTION('',(0.0,1.0,0.0));
#395=AXIS2_PLACEMENT_3D('',#392,#393,#394);
#396=PLANE('',#395);
#397=ADVANCED_FACE('',(#391),#396,.T.);
#398=CLOSED_SHELL('',(#297,#329,#351,#373,#385,#397));
#399=MANIFOLD_SOLID_BREP('RunCam_Split4_placeholder',#398);
#400=CARTESIAN_POINT('',(-12.5000,-12.5000,6.6000));
#401=VERTEX_POINT('',#400);
#402=CARTESIAN_POINT('',(12.5000,-12.5000,6.6000));
#403=VERTEX_POINT('',#402);
#404=CARTESIAN_POINT('',(-12.5000,12.5000,6.6000));
#405=VERTEX_POINT('',#404);
#406=CARTESIAN_POINT('',(12.5000,12.5000,6.6000));
#407=VERTEX_POINT('',#406);
#408=CARTESIAN_POINT('',(-12.5000,-12.5000,8.6000));
#409=VERTEX_POINT('',#408);
#410=CARTESIAN_POINT('',(12.5000,-12.5000,8.6000));
#411=VERTEX_POINT('',#410);
#412=CARTESIAN_POINT('',(-12.5000,12.5000,8.6000));
#413=VERTEX_POINT('',#412);
#414=CARTESIAN_POINT('',(12.5000,12.5000,8.6000));
#415=VERTEX_POINT('',#414);
#416=DIRECTION('',(0.0,1.0,0.0));
#417=VECTOR('',#416,25.0000);
#418=CARTESIAN_POINT('',(-12.5000,-12.5000,6.6000));
#419=LINE('',#418,#417);
#420=EDGE_CURVE('',#401,#405,#419,.T.);
#421=ORIENTED_EDGE('',*,*,#420,.T.);
#422=DIRECTION('',(1.0,0.0,0.0));
#423=VECTOR('',#422,25.0000);
#424=CARTESIAN_POINT('',(-12.5000,12.5000,6.6000));
#425=LINE('',#424,#423);
#426=EDGE_CURVE('',#405,#407,#425,.T.);
#427=ORIENTED_EDGE('',*,*,#426,.T.);
#428=DIRECTION('',(0.0,1.0,0.0));
#429=VECTOR('',#428,25.0000);
#430=CARTESIAN_POINT('',(12.5000,-12.5000,6.6000));
#431=LINE('',#430,#429);
#432=EDGE_CURVE('',#403,#407,#431,.T.);
#433=ORIENTED_EDGE('',*,*,#432,.F.);
#434=DIRECTION('',(1.0,0.0,0.0));
#435=VECTOR('',#434,25.0000);
#436=CARTESIAN_POINT('',(-12.5000,-12.5000,6.6000));
#437=LINE('',#436,#435);
#438=EDGE_CURVE('',#401,#403,#437,.T.);
#439=ORIENTED_EDGE('',*,*,#438,.F.);
#440=EDGE_LOOP('',(#421,#427,#433,#439));
#441=FACE_OUTER_BOUND('',#440,.T.);
#442=CARTESIAN_POINT('',(-12.5000,-12.5000,6.6000));
#443=DIRECTION('',(0.0,0.0,-1.0));
#444=DIRECTION('',(1.0,0.0,0.0));
#445=AXIS2_PLACEMENT_3D('',#442,#443,#444);
#446=PLANE('',#445);
#447=ADVANCED_FACE('',(#441),#446,.T.);
#448=DIRECTION('',(1.0,0.0,0.0));
#449=VECTOR('',#448,25.0000);
#450=CARTESIAN_POINT('',(-12.5000,-12.5000,8.6000));
#451=LINE('',#450,#449);
#452=EDGE_CURVE('',#409,#411,#451,.T.);
#453=ORIENTED_EDGE('',*,*,#452,.T.);
#454=DIRECTION('',(0.0,1.0,0.0));
#455=VECTOR('',#454,25.0000);
#456=CARTESIAN_POINT('',(12.5000,-12.5000,8.6000));
#457=LINE('',#456,#455);
#458=EDGE_CURVE('',#411,#415,#457,.T.);
#459=ORIENTED_EDGE('',*,*,#458,.T.);
#460=DIRECTION('',(1.0,0.0,0.0));
#461=VECTOR('',#460,25.0000);
#462=CARTESIAN_POINT('',(-12.5000,12.5000,8.6000));
#463=LINE('',#462,#461);
#464=EDGE_CURVE('',#413,#415,#463,.T.);
#465=ORIENTED_EDGE('',*,*,#464,.F.);
#466=DIRECTION('',(0.0,1.0,0.0));
#467=VECTOR('',#466,25.0000);
#468=CARTESIAN_POINT('',(-12.5000,-12.5000,8.6000));
#469=LINE('',#468,#467);
#470=EDGE_CURVE('',#409,#413,#469,.T.);
#471=ORIENTED_EDGE('',*,*,#470,.F.);
#472=EDGE_LOOP('',(#453,#459,#465,#471));
#473=FACE_OUTER_BOUND('',#472,.T.);
#474=CARTESIAN_POINT('',(-12.5000,-12.5000,8.6000));
#475=DIRECTION('',(0.0,0.0,1.0));
#476=DIRECTION('',(1.0,0.0,0.0));
#477=AXIS2_PLACEMENT_3D('',#474,#475,#476);
#478=PLANE('',#477);
#479=ADVANCED_FACE('',(#473),#478,.T.);
#480=ORIENTED_EDGE('',*,*,#438,.T.);
#481=DIRECTION('',(0.0,0.0,1.0));
#482=VECTOR('',#481,2.0000);
#483=CARTESIAN_POINT('',(12.5000,-12.5000,6.6000));
#484=LINE('',#483,#482);
#485=EDGE_CURVE('',#403,#411,#484,.T.);
#486=ORIENTED_EDGE('',*,*,#485,.T.);
#487=ORIENTED_EDGE('',*,*,#452,.F.);
#488=DIRECTION('',(0.0,0.0,1.0));
#489=VECTOR('',#488,2.0000);
#490=CARTESIAN_POINT('',(-12.5000,-12.5000,6.6000));
#491=LINE('',#490,#489);
#492=EDGE_CURVE('',#401,#409,#491,.T.);
#493=ORIENTED_EDGE('',*,*,#492,.F.);
#494=EDGE_LOOP('',(#480,#486,#487,#493));
#495=FACE_OUTER_BOUND('',#494,.T.);
#496=CARTESIAN_POINT('',(-12.5000,-12.5000,6.6000));
#497=DIRECTION('',(0.0,-1.0,0.0));
#498=DIRECTION('',(1.0,0.0,0.0));
#499=AXIS2_PLACEMENT_3D('',#496,#497,#498);
#500=PLANE('',#499);
#501=ADVANCED_FACE('',(#495),#500,.T.);
#502=ORIENTED_EDGE('',*,*,#426,.F.);
#503=DIRECTION('',(0.0,0.0,1.0));
#504=VECTOR('',#503,2.0000);
#505=CARTESIAN_POINT('',(-12.5000,12.5000,6.6000));
#506=LINE('',#505,#504);
#507=EDGE_CURVE('',#405,#413,#506,.T.);
#508=ORIENTED_EDGE('',*,*,#507,.T.);
#509=ORIENTED_EDGE('',*,*,#464,.T.);
#510=DIRECTION('',(0.0,0.0,1.0));
#511=VECTOR('',#510,2.0000);
#512=CARTESIAN_POINT('',(12.5000,12.5000,6.6000));
#513=LINE('',#512,#511);
#514=EDGE_CURVE('',#407,#415,#513,.T.);
#515=ORIENTED_EDGE('',*,*,#514,.F.);
#516=EDGE_LOOP('',(#502,#508,#509,#515));
#517=FACE_OUTER_BOUND('',#516,.T.);
#518=CARTESIAN_POINT('',(12.5000,12.5000,6.6000));
#519=DIRECTION('',(0.0,1.0,0.0));
#520=DIRECTION('',(1.0,0.0,0.0));
#521=AXIS2_PLACEMENT_3D('',#518,#519,#520);
#522=PLANE('',#521);
#523=ADVANCED_FACE('',(#517),#522,.T.);
#524=ORIENTED_EDGE('',*,*,#420,.F.);
#525=ORIENTED_EDGE('',*,*,#492,.T.);
#526=ORIENTED_EDGE('',*,*,#470,.T.);
#527=ORIENTED_EDGE('',*,*,#507,.F.);
#528=EDGE_LOOP('',(#524,#525,#526,#527));
#529=FACE_OUTER_BOUND('',#528,.T.);
#530=CARTESIAN_POINT('',(-12.5000,12.5000,6.6000));
#531=DIRECTION('',(-1.0,0.0,0.0));
#532=DIRECTION('',(0.0,1.0,0.0));
#533=AXIS2_PLACEMENT_3D('',#530,#531,#532);
#534=PLANE('',#533);
#535=ADVANCED_FACE('',(#529),#534,.T.);
#536=ORIENTED_EDGE('',*,*,#432,.T.);
#537=ORIENTED_EDGE('',*,*,#514,.T.);
#538=ORIENTED_EDGE('',*,*,#458,.F.);
#539=ORIENTED_EDGE('',*,*,#485,.F.);
#540=EDGE_LOOP('',(#536,#537,#538,#539));
#541=FACE_OUTER_BOUND('',#540,.T.);
#542=CARTESIAN_POINT('',(12.5000,-12.5000,6.6000));
#543=DIRECTION('',(1.0,0.0,0.0));
#544=DIRECTION('',(0.0,1.0,0.0));
#545=AXIS2_PLACEMENT_3D('',#542,#543,#544);
#546=PLANE('',#545);
#547=ADVANCED_FACE('',(#541),#546,.T.);
#548=CLOSED_SHELL('',(#447,#479,#501,#523,#535,#547));
#549=MANIFOLD_SOLID_BREP('RunCam_Split4_placeholder',#548);
#550=( LENGTH_UNIT() NAMED_UNIT(*) SI_UNIT(.MILLI.,.METRE.) );
#551=( NAMED_UNIT(*) PLANE_ANGLE_UNIT() SI_UNIT($,.RADIAN.) );
#552=( NAMED_UNIT(*) SI_UNIT($,.STERADIAN.) SOLID_ANGLE_UNIT() );
#553=UNCERTAINTY_MEASURE_WITH_UNIT(LENGTH_MEASURE(1.E-07),#550,'distance_accuracy_value','confusion accuracy');
#554=( GEOMETRIC_REPRESENTATION_CONTEXT(3) GLOBAL_UNCERTAINTY_ASSIGNED_CONTEXT((#553)) GLOBAL_UNIT_ASSIGNED_CONTEXT((#550,#551,#552)) REPRESENTATION_CONTEXT('Context #1','3D Context with UNIT and UNCERTAINTY') );
#555=CARTESIAN_POINT('',(0.0000,0.0000,0.0000));
#556=DIRECTION('',(0.0,0.0,1.0));
#557=DIRECTION('',(1.0,0.0,0.0));
#558=AXIS2_PLACEMENT_3D('',#555,#556,#557);
#559=ADVANCED_BREP_SHAPE_REPRESENTATION('',(#558,#249,#399,#549),#554);
#560=APPLICATION_CONTEXT('core data for automotive mechanical design processes');
#561=APPLICATION_PROTOCOL_DEFINITION('international standard','automotive_design',2000,#560);
#562=PRODUCT_CONTEXT('',#560,'mechanical');
#563=PRODUCT('RunCam_Split4_placeholder','RunCam_Split4_placeholder','',(#562));
#564=PRODUCT_RELATED_PRODUCT_CATEGORY('part',$,(#563));
#565=PRODUCT_DEFINITION_FORMATION('','',#563);
#566=PRODUCT_DEFINITION_CONTEXT('part definition',#560,'design');
#567=PRODUCT_DEFINITION('design','',#565,#566);
#568=PRODUCT_DEFINITION_SHAPE('','',#567);
#569=SHAPE_DEFINITION_REPRESENTATION(#568,#559);
ENDSEC;
END-ISO-10303-21;
